<svg xmlns="http://www.w3.org/2000/svg" width="40" height="60" viewBox="0 0 40 60">
  <defs>
    <style>
      .cls-1 {
        fill: #ff8900;
      }

      .cls-2 {
        fill: #fff;
      }
    </style>
  </defs>
  <g id="组_9477" data-name="组 9477" transform="translate(-237 -522.8)">
    <path id="路径_6747" data-name="路径 6747" class="cls-1" d="M20,0C31.046,0,40,9.3,40,20.769S20,60,20,60,0,32.24,0,20.769,8.954,0,20,0Z" transform="translate(237 522.8)"/>
    <circle id="椭圆_2072" data-name="椭圆 2072" class="cls-2" cx="17" cy="17" r="17" transform="translate(240 526)"/>
    <g id="组_9318" data-name="组 9318" transform="translate(7.063 291.469)">
      <path id="路径_6708" data-name="路径 6708" class="cls-1" d="M247.759,262.2c-2.116.107-2.009.291-2.055-1.8-.353,0-.706.016-1.058,0a1.56,1.56,0,0,1-1.7-1.717c.015-2.776-.292-2.254,1.9-3.971a2.074,2.074,0,0,0,.92-1.917c-.061-2.116-.015-3.711-.03-5.827a.7.7,0,0,1,.49-.767,7.875,7.875,0,0,1,6.395-.031.776.776,0,0,1,.567.844c-.031,2.254,0,4-.015,6.271a1.142,1.142,0,0,0,.49,1.074c.583.4,1.1.874,1.656,1.319a1.683,1.683,0,0,1,.675,1.38c0,.552.016,1.1,0,1.656a1.565,1.565,0,0,1-1.641,1.656c-.352.015-.72,0-.92,0-.26.644-.337,1.426-.736,1.656-.521.307-.782.184-1.518.245,0-1.656-.015-3.189,0-4.723a9.283,9.283,0,0,0-1.457-4.094,3.425,3.425,0,0,0-.26-.337,8.5,8.5,0,0,0-1.672,3.726c-.046,1.518-.03,3.021-.046,4.539.016.261.016.521.016.813Zm0,0"/>
      <path id="路径_6709" data-name="路径 6709" class="cls-1" d="M253.187,245.335a8.08,8.08,0,0,0-7.422-.015,13.755,13.755,0,0,1,2.086-7.468c1.027-1.733,2.177-1.794,3.25.015a14.066,14.066,0,0,1,2.086,7.468Zm-3.711,9.139a8.526,8.526,0,0,1,.859,2.484c.092,2.086.03,4.309.046,6.395,0,.644-.353.782-.9.782s-.92-.108-.92-.752c.015-2.131,0-4.263.031-6.394a7.831,7.831,0,0,1,.889-2.515Zm0,0"/>
    </g>
  </g>
</svg>
