<svg xmlns="http://www.w3.org/2000/svg" width="40" height="60" viewBox="0 0 40 60">
  <defs>
    <style>
      .cls-1 {
        fill: #0084ff;
      }

      .cls-2 {
        fill: #fff;
      }
    </style>
  </defs>
  <g id="组_9480" data-name="组 9480" transform="translate(-171 -688.8)">
    <path id="路径_6749" data-name="路径 6749" class="cls-1" d="M20,0C31.046,0,40,9.3,40,20.769S20,60,20,60,0,32.24,0,20.769,8.954,0,20,0Z" transform="translate(171 688.8)"/>
    <circle id="椭圆_2074" data-name="椭圆 2074" class="cls-2" cx="17" cy="17" r="17" transform="translate(174 692)"/>
    <g id="组_9321" data-name="组 9321" transform="translate(-39.861 479)">
      <g id="组_9307" data-name="组 9307" transform="translate(217.861 216)">
        <path id="路径_6710" data-name="路径 6710" class="cls-1" d="M242.5,226.47a.8.8,0,0,0-.74.529,12.351,12.351,0,0,1-8.884,8.461V228.8h5.5a.455.455,0,0,0,.423-.423v-2.856a.455.455,0,0,0-.423-.423h-5.288a4.8,4.8,0,0,0,2.327-4.125A4.943,4.943,0,0,0,230.552,216a4.849,4.849,0,0,0-2.432,8.99h-5.288a.455.455,0,0,0-.423.423v2.961a.455.455,0,0,0,.423.423h5.5v6.663A12.176,12.176,0,0,1,219.447,227c-.211-.211-.528-.529-.846-.529a.854.854,0,0,0-.74.952,13.589,13.589,0,0,0,9.836,12.691l2.856,3.49,2.856-3.49a13.589,13.589,0,0,0,9.836-12.691.854.854,0,0,0-.74-.952Zm-11.951-7.192a1.627,1.627,0,0,1,1.587,1.586,1.724,1.724,0,0,1-1.587,1.692,1.627,1.627,0,0,1-1.586-1.586,1.724,1.724,0,0,1,1.586-1.692Zm0,0" transform="translate(-217.861 -216)"/>
      </g>
    </g>
  </g>
</svg>
