<svg xmlns="http://www.w3.org/2000/svg" width="40" height="60" viewBox="0 0 40 60">
  <defs>
    <style>
      .cls-1 {
        fill: #b100ff;
      }

      .cls-2 {
        fill: #fff;
      }
    </style>
  </defs>
  <g id="组_9478" data-name="组 9478" transform="translate(-171 -609.8)">
    <path id="路径_6745" data-name="路径 6745" class="cls-1" d="M20,0C31.046,0,40,9.3,40,20.769S20,60,20,60,0,32.24,0,20.769,8.954,0,20,0Z" transform="translate(171 609.8)"/>
    <circle id="椭圆_2070" data-name="椭圆 2070" class="cls-2" cx="17" cy="17" r="17" transform="translate(174 613)"/>
    <g id="组_9320" data-name="组 9320" transform="translate(-33.504 400.832)">
      <g id="组_9309" data-name="组 9309" transform="translate(213.489 219.744)">
        <path id="路径_6711" data-name="路径 6711" class="cls-1" d="M214.6,219.744h7.35l1.107,1.611h-9.564Zm6.242,16.008.1,1.107h1.208v1.209h-1.007l-.194-1.166.5,5.293h9.767v-6.444Zm1.309,4.43h-.805l-.2-1.208h1.007Zm2.014,0h-1.108v-1.208h1.108Zm0-2.114h-1.108V236.86h1.108Zm2.013,2.114h-1.107v-1.208h1.107Zm0-2.114h-1.107V236.86h1.107Zm2.014,2.114h-1.107v-1.208h1.107Zm0-2.114h-1.107V236.86h1.107Zm2.014,2.114h-1.108v-1.208H230.2Zm0-2.114h-1.108V236.86H230.2Zm0,0" transform="translate(-213.489 -219.744)"/>
        <path id="路径_6712" data-name="路径 6712" class="cls-1" d="M222.047,227.365l1.007-3.222h-9.564l1.007,3.222h-.7l-.3.2v1.108l.3.2h.4v2.315a1.342,1.342,0,0,0,.7.906,8.76,8.76,0,0,0,1.309.5L215.1,244.984h6.343l-.576-6.444-.532-5.94a10.077,10.077,0,0,0,1.409-.5,1.331,1.331,0,0,0,.6-.805v-2.416h.5l.2-.2v-1.108l-.2-.2h-.806Zm-7.249-.805-.7-2.215h2.316l.5,2.215Zm2.618,0-.5-2.215h2.819l-.4,2.215Zm4.43,0h-2.114l.4-2.215h2.316Zm11.592.992a.159.159,0,0,1-.093,0c-1.826-.762-3.651-1.533-5.477-2.288a.859.859,0,0,0-.752.131c-.217.1-.431.215-.645.321a.342.342,0,0,0-.074.6l2.633,2.478a.235.235,0,0,1-.084.391l-1.779.412a.183.183,0,0,1-.141-.038c-.581-.517-1.387-.988-1.879-1.348a.723.723,0,0,0-.872,0,.806.806,0,0,0-.27.383.612.612,0,0,0,.047.468l1.4,2.337a.887.887,0,0,0,.645.359c.456.1.733.153,1.183.233a1.879,1.879,0,0,0,.778-.041c3.753-1.055,10.811-3.221,10.811-3.221.553-.2.733-.625.579-.961a2,2,0,0,0-1.31-1.035,2.689,2.689,0,0,0-1.335,0q-1.67.473-3.37.833Zm0,0" transform="translate(-213.489 -222.532)"/>
      </g>
    </g>
  </g>
</svg>
